# xmcd
#
# Track frame offsets: 
#        150
#        21107
#        40796
#        61743
#
# Disc length: 1085 seconds
#
# Revision: 1
# Processed by: cddbd v1.5.2PL0 Copyright (c) Steve Scherf et al.
# Submitted via: ExactAudioCopy v1.0b3
#
DISCID=26043b04
DTITLE=榊原ゆい - jewelry days
DYEAR=2004
DGENRE=Game
TTITLE0=jewelry days
TTITLE1=Love×2♪ song
TTITLE2=jewelry days-karaoke ver-
TTITLE3=Love×2♪ song-karaoke ver-
EXTD=YEAR: 2004
EXTT0=
EXTT1=
EXTT2=
EXTT3=
PLAYORDER=
